<svg xmlns="http://www.w3.org/2000/svg" viewBox="0 0 520 200" role="img" aria-label="BFORT">
  <g fill="#d21f26">
    <!-- Left minaret -->
    <rect x="52" y="70" width="26" height="120"/>
    <rect x="46" y="64" width="38" height="10"/>
    <path d="M65 34 l16 30 h-32 z"/>
    <circle cx="65" cy="30" r="5"/>
    <!-- Left dome tower -->
    <rect x="96" y="110" width="60" height="80"/>
    <path d="M96 110 q30 -34 60 0 z"/>
    <rect x="120" y="70" width="12" height="42"/>
    <path d="M126 58 l10 16 h-20 z"/>
    <!-- Central palace -->
    <rect x="168" y="96" width="120" height="94"/>
    <g fill="#fff">
      <path d="M180 118 h16 v22 a8 8 0 0 1 -16 0 z"/>
      <path d="M204 118 h16 v22 a8 8 0 0 1 -16 0 z"/>
      <path d="M228 118 h16 v22 a8 8 0 0 1 -16 0 z"/>
      <path d="M252 118 h16 v22 a8 8 0 0 1 -16 0 z"/>
      <path d="M180 150 h16 v22 a8 8 0 0 1 -16 0 z"/>
      <path d="M204 150 h16 v22 a8 8 0 0 1 -16 0 z"/>
      <path d="M228 150 h16 v22 a8 8 0 0 1 -16 0 z"/>
      <path d="M252 150 h16 v22 a8 8 0 0 1 -16 0 z"/>
    </g>
    <g fill="#d21f26">
      <circle cx="180" cy="90" r="6"/><circle cx="198" cy="90" r="6"/>
      <circle cx="216" cy="90" r="6"/><circle cx="234" cy="90" r="6"/>
      <circle cx="252" cy="90" r="6"/><circle cx="270" cy="90" r="6"/>
    </g>
    <!-- Right dome tower -->
    <rect x="300" y="110" width="60" height="80"/>
    <path d="M300 110 q30 -34 60 0 z"/>
    <rect x="324" y="70" width="12" height="42"/>
    <path d="M330 58 l10 16 h-20 z"/>
    <!-- Right minaret -->
    <rect x="378" y="70" width="26" height="120"/>
    <rect x="372" y="64" width="38" height="10"/>
    <path d="M391 34 l16 30 h-32 z"/>
    <circle cx="391" cy="30" r="5"/>
  </g>
</svg>
